<?xml version="1.0" standalone="no"?>
<!DOCTYPE svg PUBLIC "-//W3C//DTD SVG 20010904//EN"
 "http://www.w3.org/TR/2001/REC-SVG-20010904/DTD/svg10.dtd">
<svg version="1.0" xmlns="http://www.w3.org/2000/svg"
 width="30.000000pt" height="30.000000pt" viewBox="0 0 30.000000 30.000000"
 preserveAspectRatio="xMidYMid meet">

<g transform="translate(0.000000,30.000000) scale(0.100000,-0.100000)"
fill="#000000" stroke="none">
<path d="M122 248 c-16 -16 -15 -43 3 -58 16 -14 22 -130 6 -130 -18 0 -61 42
-61 60 0 10 -7 21 -16 24 -23 9 -24 8 -24 -16 1 -14 15 -34 37 -51 64 -48 102
-48 166 0 23 18 36 36 37 52 0 17 -4 22 -16 17 -9 -3 -18 -6 -20 -6 -2 0 -4
-9 -4 -19 0 -19 -43 -61 -61 -61 -16 0 -10 116 6 130 28 23 11 70 -25 70 -9 0
-21 -5 -28 -12z"/>
</g>
</svg>
